<svg width="131" height="130" viewBox="0 0 131 130" fill="none" xmlns="http://www.w3.org/2000/svg">
<circle cx="65.5" cy="65" r="50" fill="#CD88D8" fill-opacity="0.25"/>
<circle cx="65.5" cy="65" r="57.5" stroke="url(#paint0_radial_265_618)" stroke-opacity="0.5" stroke-width="15"/>
<path d="M68.5989 80C68.2963 80 67.9918 79.8913 67.7635 79.6714L65.1774 77.2389C64.9545 77.0323 64.8294 76.7491 64.8294 76.4558C64.8294 76.1579 64.9545 75.8761 65.1774 75.6681L72.7309 68.5572H47.1816C46.5274 68.5572 46 68.0554 46 67.4409V63.3124C46 62.698 46.5274 62.1995 47.1816 62.1995H72.4699L65.1774 55.3339C64.9545 55.1232 64.8294 54.8421 64.8294 54.5456C64.8294 54.2523 64.9545 53.9691 65.1774 53.7591L67.7635 51.3253C67.9918 51.108 68.2963 51 68.5989 51C68.9016 51 69.2042 51.108 69.4362 51.3253L83.6534 64.7119C84.1155 65.1464 84.1155 65.8529 83.6534 66.2881L69.4362 79.6714C69.2042 79.8913 68.9016 80 68.5989 80Z" fill="white"/>
<path d="M65.5 98C47.5818 98 33 83.4218 33 65.4983C33 47.577 47.5818 33 65.5 33C83.4201 33 98 47.577 98 65.4983C98 83.4218 83.4201 98 65.5 98ZM65.5 37.6228C50.1294 37.6228 37.6271 50.127 37.6271 65.4983C37.6271 80.8717 50.1294 93.3751 65.5 93.3751C80.8707 93.3751 93.3746 80.8717 93.3746 65.4983C93.3746 50.127 80.8707 37.6228 65.5 37.6228Z" fill="white"/>
<defs>
<radialGradient id="paint0_radial_265_618" cx="0" cy="0" r="1" gradientUnits="userSpaceOnUse" gradientTransform="translate(65.5 65) rotate(90) scale(50)">
<stop offset="0.697917"/>
<stop offset="0.770833" stop-color="white" stop-opacity="0.78"/>
<stop offset="0.9375" stop-color="white" stop-opacity="0.99"/>
</radialGradient>
</defs>
</svg>
