<svg width="131" height="130" viewBox="0 0 131 130" fill="none" xmlns="http://www.w3.org/2000/svg">
<ellipse cx="65.5" cy="65" rx="50" ry="49.5146" fill="#555355"/>
<path d="M65.5 122.015C97.1872 122.015 123 96.5571 123 65C123 33.4429 97.1872 7.98547 65.5 7.98547C33.8128 7.98547 8 33.4429 8 65C8 96.5571 33.8128 122.015 65.5 122.015Z" stroke="url(#paint0_radial_16_3896)" stroke-opacity="0.5" stroke-width="15"/>
<path d="M28.3428 72.2855V70.7255H37.6128C38.7528 70.7255 39.3228 70.1655 39.3228 69.0455V65.4755C39.3228 64.3355 38.7528 63.7655 37.6128 63.7655H28.6428V52.7855H41.4828V55.5455H31.7028V61.0055H37.6428C40.8028 61.0055 42.3828 62.5855 42.3828 65.7455V68.7455C42.3828 71.9055 40.8028 73.4855 37.6428 73.4855H29.9028L28.3428 72.2855ZM45.9865 68.7455V57.5255C45.9865 54.3655 47.5665 52.7855 50.7265 52.7855H54.9865C58.1465 52.7855 59.7265 54.3655 59.7265 57.5255V68.7455C59.7265 71.9055 58.1465 73.4855 54.9865 73.4855H50.7265C47.5665 73.4855 45.9865 71.9055 45.9865 68.7455ZM49.0465 69.0455C49.0465 70.1655 49.6165 70.7255 50.7565 70.7255H54.9565C56.0965 70.7255 56.6665 70.1655 56.6665 69.0455V57.2255C56.6665 56.1055 56.0965 55.5455 54.9565 55.5455H50.7565C49.6165 55.5455 49.0465 56.1055 49.0465 57.2255V69.0455ZM63.8403 73.4855V69.9455H67.2003V73.4855H63.8403ZM63.8403 61.3955V57.8555H67.2003V61.3955H63.8403ZM70.9697 72.2855V70.7255H80.2397C81.3797 70.7255 81.9497 70.1655 81.9497 69.0455V65.4755C81.9497 64.3355 81.3797 63.7655 80.2397 63.7655H71.2697V52.7855H84.1097V55.5455H74.3297V61.0055H80.2697C83.4297 61.0055 85.0097 62.5855 85.0097 65.7455V68.7455C85.0097 71.9055 83.4297 73.4855 80.2697 73.4855H72.5297L70.9697 72.2855ZM88.6135 68.7455V57.5255C88.6135 54.3655 90.1935 52.7855 93.3535 52.7855H97.6135C100.773 52.7855 102.353 54.3655 102.353 57.5255V68.7455C102.353 71.9055 100.773 73.4855 97.6135 73.4855H93.3535C90.1935 73.4855 88.6135 71.9055 88.6135 68.7455ZM91.6735 69.0455C91.6735 70.1655 92.2435 70.7255 93.3835 70.7255H97.5835C98.7235 70.7255 99.2935 70.1655 99.2935 69.0455V57.2255C99.2935 56.1055 98.7235 55.5455 97.5835 55.5455H93.3835C92.2435 55.5455 91.6735 56.1055 91.6735 57.2255V69.0455Z" fill="black"/>
<defs>
<radialGradient id="paint0_radial_16_3896" cx="0" cy="0" r="1" gradientUnits="userSpaceOnUse" gradientTransform="translate(65.5 65) rotate(90) scale(49.5146 50)">
<stop offset="0.697917"/>
<stop offset="0.770833" stop-color="white" stop-opacity="0.78"/>
<stop offset="0.9375" stop-color="white" stop-opacity="0.99"/>
</radialGradient>
</defs>
</svg>
