<svg width="131" height="130" viewBox="0 0 131 130" fill="none" xmlns="http://www.w3.org/2000/svg">
<circle cx="65.5" cy="65" r="50" fill="#99A2F2"/>
<circle cx="65.5" cy="65" r="57.5" stroke="url(#paint0_radial_265_614)" stroke-opacity="0.5" stroke-width="15"/>
<path d="M67.55 80.3009L67.55 80.3009L67.554 80.3052C67.678 80.4362 67.8411 80.5 68.0042 80.5C68.1658 80.5 68.3294 80.4371 68.4589 80.3023L68.4601 80.3011L82.3031 65.9949C82.5658 65.7233 82.5654 65.2759 82.3034 65.0054L82.3032 65.0052L68.4609 50.6963C68.4607 50.6961 68.4605 50.6959 68.4603 50.6957C68.3309 50.5629 68.1668 50.5 68.0042 50.5C67.8399 50.5 67.6759 50.564 67.552 50.6935L67.55 50.6955L65.0322 53.2969C64.9059 53.4275 64.8339 53.6053 64.8339 53.7901C64.8339 53.9778 64.9056 54.1538 65.0324 54.2856C65.0325 54.2857 65.0327 54.2858 65.0328 54.2859L72.1327 61.6242L72.9528 62.4719H71.7734H47.1505C46.8058 62.4719 46.5 62.7645 46.5 63.1615V67.5748C46.5 67.9739 46.8077 68.268 47.1505 68.268H72.0274H73.207L72.3868 69.1157L65.0321 76.717L65.0305 76.7186C64.9065 76.8457 64.8339 77.0208 64.8339 77.2114C64.8339 77.3969 64.9063 77.5729 65.0293 77.698L65.0319 77.7006L67.55 80.3009Z" fill="#010101" stroke="black"/>
<path d="M33.5 65.4983C33.5 83.1456 47.8579 97.5 65.5 97.5C83.1439 97.5 97.5 83.1456 97.5 65.4983C97.5 47.8532 83.144 33.5 65.5 33.5C47.8578 33.5 33.5 47.8532 33.5 65.4983ZM37.1271 65.4983C37.1271 49.8509 49.8532 37.1228 65.5 37.1228C81.1468 37.1228 93.8746 49.8509 93.8746 65.4983C93.8746 81.1479 81.1469 93.8751 65.5 93.8751C49.8532 93.8751 37.1271 81.1478 37.1271 65.4983Z" fill="#010101" stroke="black"/>
<defs>
<radialGradient id="paint0_radial_265_614" cx="0" cy="0" r="1" gradientUnits="userSpaceOnUse" gradientTransform="translate(65.5 65) rotate(90) scale(50)">
<stop offset="0.697917"/>
<stop offset="0.770833" stop-color="white" stop-opacity="0.78"/>
<stop offset="0.9375" stop-color="white" stop-opacity="0.99"/>
</radialGradient>
</defs>
</svg>
