<svg width="131" height="130" viewBox="0 0 131 130" fill="none" xmlns="http://www.w3.org/2000/svg">
<circle cx="65.5" cy="65" r="50" fill="#99A2F2"/>
<circle cx="65.5" cy="65" r="57.5" stroke="url(#paint0_radial_39_890)" stroke-opacity="0.5" stroke-width="15"/>
<path d="M36.0259 74.5561C35.4931 72.7922 36.4994 70.9344 38.2702 70.405C40.0427 69.8777 41.9106 70.8772 42.4418 72.639C46.3982 85.7543 60.3387 93.2184 73.5176 89.284C86.6965 85.3475 94.2019 71.476 90.2462 58.3627C86.2888 45.2454 72.3468 37.7793 59.1671 41.7157C55.3775 42.848 52.0115 44.8142 49.2122 47.4548L55.6552 48.8323L34 62.291L39.424 37.4645L43.3926 43.8229C47.1612 39.8497 51.8704 36.9372 57.2406 35.3328C73.9588 30.3397 91.6423 39.8129 96.6604 56.4456C101.678 73.0804 92.1605 90.6738 75.4425 95.6669C58.7259 100.66 41.044 91.1909 36.0259 74.5561Z" fill="black"/>
<defs>
<radialGradient id="paint0_radial_39_890" cx="0" cy="0" r="1" gradientUnits="userSpaceOnUse" gradientTransform="translate(65.5 65) rotate(90) scale(50)">
<stop offset="0.697917"/>
<stop offset="0.770833" stop-color="white" stop-opacity="0.78"/>
<stop offset="0.9375" stop-color="white" stop-opacity="0.99"/>
</radialGradient>
</defs>
</svg>
