<svg width="131" height="130" viewBox="0 0 131 130" fill="none" xmlns="http://www.w3.org/2000/svg">
<circle cx="65.5" cy="65" r="50" fill="#F2DF99"/>
<circle cx="65.5" cy="65" r="57.5" stroke="url(#paint0_radial_16_3892)" stroke-opacity="0.5" stroke-width="15"/>
<path d="M28.3428 72.8V71.24H37.6128C38.7528 71.24 39.3228 70.68 39.3228 69.56V65.99C39.3228 64.85 38.7528 64.28 37.6128 64.28H28.6428V53.3H41.4828V56.06H31.7028V61.52H37.6428C40.8028 61.52 42.3828 63.1 42.3828 66.26V69.26C42.3828 72.42 40.8028 74 37.6428 74H29.9028L28.3428 72.8ZM45.9865 69.26V58.04C45.9865 54.88 47.5665 53.3 50.7265 53.3H54.9865C58.1465 53.3 59.7265 54.88 59.7265 58.04V69.26C59.7265 72.42 58.1465 74 54.9865 74H50.7265C47.5665 74 45.9865 72.42 45.9865 69.26ZM49.0465 69.56C49.0465 70.68 49.6165 71.24 50.7565 71.24H54.9565C56.0965 71.24 56.6665 70.68 56.6665 69.56V57.74C56.6665 56.62 56.0965 56.06 54.9565 56.06H50.7565C49.6165 56.06 49.0465 56.62 49.0465 57.74V69.56ZM63.8403 74V70.46H67.2003V74H63.8403ZM63.8403 61.91V58.37H67.2003V61.91H63.8403ZM70.9697 72.8V71.24H80.2397C81.3797 71.24 81.9497 70.68 81.9497 69.56V65.99C81.9497 64.85 81.3797 64.28 80.2397 64.28H71.2697V53.3H84.1097V56.06H74.3297V61.52H80.2697C83.4297 61.52 85.0097 63.1 85.0097 66.26V69.26C85.0097 72.42 83.4297 74 80.2697 74H72.5297L70.9697 72.8ZM88.6135 69.26V58.04C88.6135 54.88 90.1935 53.3 93.3535 53.3H97.6135C100.773 53.3 102.353 54.88 102.353 58.04V69.26C102.353 72.42 100.773 74 97.6135 74H93.3535C90.1935 74 88.6135 72.42 88.6135 69.26ZM91.6735 69.56C91.6735 70.68 92.2435 71.24 93.3835 71.24H97.5835C98.7235 71.24 99.2935 70.68 99.2935 69.56V57.74C99.2935 56.62 98.7235 56.06 97.5835 56.06H93.3835C92.2435 56.06 91.6735 56.62 91.6735 57.74V69.56Z" fill="black"/>
<defs>
<radialGradient id="paint0_radial_16_3892" cx="0" cy="0" r="1" gradientUnits="userSpaceOnUse" gradientTransform="translate(65.5 65) rotate(90) scale(50)">
<stop offset="0.697917"/>
<stop offset="0.770833" stop-color="white" stop-opacity="0.78"/>
<stop offset="0.9375" stop-color="white" stop-opacity="0.99"/>
</radialGradient>
</defs>
</svg>
