<svg width="131" height="130" viewBox="0 0 131 130" fill="none" xmlns="http://www.w3.org/2000/svg">
<circle cx="65.5" cy="65" r="50" fill="#F2DF99"/>
<circle cx="65.5" cy="65" r="57.5" stroke="url(#paint0_radial_16_3871)" stroke-opacity="0.5" stroke-width="15"/>
<path d="M53.6249 57.6808C53.6249 50.9645 58.9522 45.5004 65.4995 45.5004C72.0478 45.5004 77.3751 50.9645 77.3751 57.6808C77.3751 64.3962 72.0478 69.8602 65.4995 69.8602C58.9522 69.8602 53.6249 64.3962 53.6249 57.6808ZM74.4309 71.5211C78.802 68.5442 81.6926 63.4548 81.6926 57.6808C81.6926 48.5219 74.4292 41.0721 65.4995 41.0721C56.5707 41.0721 49.3065 48.5219 49.3065 57.6808C49.3065 63.4548 52.197 68.5442 56.5691 71.5211C46.6765 75.2648 39.591 85.0044 39.591 96.4346H43.9085C43.9085 84.2228 53.5942 74.2894 65.4995 74.2894C77.4057 74.2894 87.0906 84.2228 87.0906 96.4346H91.4089C91.4089 85.0044 84.3226 75.2648 74.4309 71.5211" fill="black"/>
<path d="M96.0211 60.449C100.393 57.472 103.284 52.3818 103.284 46.6077C103.284 37.4498 96.0202 30 87.0906 30C82.7645 30 78.8395 31.7579 75.9319 34.603C74.8549 35.6561 73.9243 36.8595 73.1614 38.1807C74.5084 38.7387 75.7906 39.4286 76.9783 40.2547C77.7421 38.9806 78.7246 37.8637 79.8766 36.9555C81.8791 35.3776 84.3763 34.4283 87.0906 34.4283C93.6388 34.4283 98.9653 39.8923 98.9653 46.6077C98.9653 52.1827 95.2897 56.8835 90.2979 58.3244C89.2762 58.6187 88.2034 58.7881 87.0906 58.7881C86.7083 58.7881 86.3328 58.7654 85.9591 58.7287C85.8816 60.3233 85.6381 61.8707 85.2328 63.3526C85.8492 63.2976 86.4597 63.2173 87.0906 63.2173C87.9675 63.2173 88.8266 63.2863 89.6763 63.3911C100.365 64.708 108.682 74.0502 108.682 85.3616H113C113 73.9323 105.914 64.1927 96.0211 60.449" fill="black"/>
<path d="M43.9085 63.2173C44.5403 63.2173 45.1499 63.2976 45.7672 63.3526C45.3619 61.8707 45.1176 60.3233 45.0409 58.7287C44.668 58.7654 44.2908 58.7881 43.9085 58.7881C42.7966 58.7881 41.7238 58.6187 40.7021 58.3244C35.7094 56.8835 32.0339 52.1827 32.0339 46.6077C32.0339 39.8923 37.3612 34.4283 43.9085 34.4283C46.6237 34.4283 49.1209 35.3776 51.1234 36.9555C52.2754 37.8637 53.2571 38.9806 54.0208 40.2547C55.2094 39.4286 56.4907 38.7387 57.8377 38.1807C57.0757 36.8595 56.1451 35.6561 55.068 34.603C52.1605 31.7579 48.2346 30 43.9085 30C34.9798 30 27.7155 37.4498 27.7155 46.6077C27.7155 52.3818 30.606 57.472 34.978 60.449C25.0863 64.1927 18 73.9323 18 85.3616H22.3184C22.3184 74.0502 30.6341 64.708 41.3228 63.3911C42.1725 63.2863 43.0324 63.2173 43.9085 63.2173" fill="black"/>
<defs>
<radialGradient id="paint0_radial_16_3871" cx="0" cy="0" r="1" gradientUnits="userSpaceOnUse" gradientTransform="translate(65.5 65) rotate(90) scale(50)">
<stop offset="0.697917"/>
<stop offset="0.770833" stop-color="white" stop-opacity="0.78"/>
<stop offset="0.9375" stop-color="white" stop-opacity="0.99"/>
</radialGradient>
</defs>
</svg>
