<svg width="131" height="130" viewBox="0 0 131 130" fill="none" xmlns="http://www.w3.org/2000/svg">
<circle cx="65.5" cy="65" r="50" fill="#CD88D8" fill-opacity="0.25"/>
<circle cx="65.5" cy="65" r="57.5" stroke="url(#paint0_radial_39_903)" stroke-opacity="0.5" stroke-width="15"/>
<path d="M104.432 30.2322L104.429 30.2157C104.376 29.6029 103.985 29.0868 103.471 29.0095C102.87 28.9212 102.32 29.4566 102.245 30.2101C101.519 37.6622 100.24 44.979 97.9078 51.3601C95.5934 57.7496 92.1305 62.828 87.8462 65.8143C83.5773 68.8614 78.531 70.1724 73.2109 70.5809C70.9848 70.7465 68.7079 70.7244 66.4068 70.6112L70.1788 59.5298L28 81.7617L70.1788 104L66.1639 92.2001C69.4942 91.4245 72.8289 90.453 76.1658 89.1613C82.6277 86.6469 89.2861 82.7829 94.5466 76.457C97.1614 73.3326 99.3212 69.6453 100.902 65.7564C102.488 61.8592 103.5 57.791 104.127 53.7752C105.348 45.7076 105.132 37.825 104.432 30.2322Z" fill="white"/>
<defs>
<radialGradient id="paint0_radial_39_903" cx="0" cy="0" r="1" gradientUnits="userSpaceOnUse" gradientTransform="translate(65.5 65) rotate(90) scale(50)">
<stop offset="0.697917"/>
<stop offset="0.770833" stop-color="white" stop-opacity="0.78"/>
<stop offset="0.9375" stop-color="white" stop-opacity="0.99"/>
</radialGradient>
</defs>
</svg>
