<svg width="131" height="130" viewBox="0 0 131 130" fill="none" xmlns="http://www.w3.org/2000/svg">
<ellipse cx="65.5" cy="65" rx="50" ry="49.5146" fill="#555355"/>
<path d="M65.5 122.015C97.1872 122.015 123 96.5571 123 65C123 33.4429 97.1872 7.98547 65.5 7.98547C33.8128 7.98547 8 33.4429 8 65C8 96.5571 33.8128 122.015 65.5 122.015Z" stroke="url(#paint0_radial_16_3908)" stroke-opacity="0.5" stroke-width="15"/>
<mask id="path-3-outside-1_16_3908" maskUnits="userSpaceOnUse" x="39" y="37.7126" width="54" height="54" fill="black">
<rect fill="white" x="39" y="37.7126" width="54" height="54"/>
<path d="M67.0043 83.7655L46.9366 63.6868C41.9913 58.7415 41.7199 50.9775 46.1007 45.7081L54.6417 54.2495C52.3975 56.7922 52.4908 60.6695 54.9231 63.1015L67.5881 75.7775C67.5881 75.7775 67.5881 75.7775 67.5892 75.7775C70.0184 78.2081 73.8949 78.3068 76.4417 76.0602L84.9835 84.6015C79.7303 88.9735 71.9835 88.7441 67.0043 83.7655ZM51.4184 42.4748L57.8455 48.8802C58.4376 49.4735 58.4376 50.4322 57.8455 51.0242L56.7736 52.0961L48.2079 43.5295L49.2736 42.4721C49.8647 41.8828 50.8257 41.8828 51.4184 42.4748ZM81.8095 72.8548L88.2381 79.2842C88.8288 79.8748 88.8288 80.8362 88.2381 81.4268L87.1663 82.4988L78.5955 73.9268L79.6663 72.8548C80.2575 72.2655 81.2184 72.2655 81.8095 72.8548ZM90.3803 77.1415L83.9523 70.7135C82.1799 68.9402 79.296 68.9402 77.5236 70.7135L74.6017 73.6348C73.2589 74.9775 71.0741 74.9775 69.7319 73.6348L57.0663 60.9588C55.7204 59.6135 55.7204 57.4348 57.0663 56.0895C57.5365 55.6188 58.8887 54.2668 59.9887 53.1668C61.7527 51.4028 61.7777 48.5268 59.9865 46.7361L53.5595 40.3295C51.7876 38.5575 48.9033 38.5575 47.1355 40.3255C45.8126 41.6375 45.3866 42.0588 44.7934 42.6468C38.4022 49.0388 38.4022 59.4375 44.7934 65.8281L64.8616 85.9081C71.2679 92.3135 81.6365 92.3148 88.0433 85.9081L90.3813 83.5695C92.1532 81.7975 92.1532 78.9135 90.3803 77.1415Z"/>
</mask>
<path d="M67.0043 83.7655L46.9366 63.6868C41.9913 58.7415 41.7199 50.9775 46.1007 45.7081L54.6417 54.2495C52.3975 56.7922 52.4908 60.6695 54.9231 63.1015L67.5881 75.7775C67.5881 75.7775 67.5881 75.7775 67.5892 75.7775C70.0184 78.2081 73.8949 78.3068 76.4417 76.0602L84.9835 84.6015C79.7303 88.9735 71.9835 88.7441 67.0043 83.7655ZM51.4184 42.4748L57.8455 48.8802C58.4376 49.4735 58.4376 50.4322 57.8455 51.0242L56.7736 52.0961L48.2079 43.5295L49.2736 42.4721C49.8647 41.8828 50.8257 41.8828 51.4184 42.4748ZM81.8095 72.8548L88.2381 79.2842C88.8288 79.8748 88.8288 80.8362 88.2381 81.4268L87.1663 82.4988L78.5955 73.9268L79.6663 72.8548C80.2575 72.2655 81.2184 72.2655 81.8095 72.8548ZM90.3803 77.1415L83.9523 70.7135C82.1799 68.9402 79.296 68.9402 77.5236 70.7135L74.6017 73.6348C73.2589 74.9775 71.0741 74.9775 69.7319 73.6348L57.0663 60.9588C55.7204 59.6135 55.7204 57.4348 57.0663 56.0895C57.5365 55.6188 58.8887 54.2668 59.9887 53.1668C61.7527 51.4028 61.7777 48.5268 59.9865 46.7361L53.5595 40.3295C51.7876 38.5575 48.9033 38.5575 47.1355 40.3255C45.8126 41.6375 45.3866 42.0588 44.7934 42.6468C38.4022 49.0388 38.4022 59.4375 44.7934 65.8281L64.8616 85.9081C71.2679 92.3135 81.6365 92.3148 88.0433 85.9081L90.3813 83.5695C92.1532 81.7975 92.1532 78.9135 90.3803 77.1415Z" fill="black"/>
<path d="M46.9366 63.6868L47.2901 63.3333L47.2902 63.3334L46.9366 63.6868ZM46.1007 45.7081L45.7162 45.3885L46.0666 44.967L46.4542 45.3546L46.1007 45.7081ZM54.6417 54.2495L54.9953 53.8959L55.3275 54.2281L55.0166 54.5804L54.6417 54.2495ZM54.9231 63.1015L55.2766 62.7479L55.2768 62.7481L54.9231 63.1015ZM67.5881 75.7775L67.9419 75.4241L68.7945 76.2775H67.5881V75.7775ZM67.5892 75.7775V75.2775H67.7964L67.9429 75.424L67.5892 75.7775ZM76.4417 76.0602L76.111 75.6852L76.4632 75.3745L76.7953 75.7066L76.4417 76.0602ZM84.9835 84.6015L85.337 84.2479L85.7244 84.6353L85.3033 84.9858L84.9835 84.6015ZM51.4184 42.4748L51.0654 42.829L51.065 42.8286L51.4184 42.4748ZM57.8455 48.8802L58.1984 48.526L58.1994 48.527L57.8455 48.8802ZM57.8455 51.0242L57.4919 50.6706L57.492 50.6706L57.8455 51.0242ZM56.7736 52.0961L57.1272 52.4497L56.7736 52.8033L56.42 52.4497L56.7736 52.0961ZM48.2079 43.5295L47.8544 43.883L47.4995 43.5281L47.8558 43.1745L48.2079 43.5295ZM49.2736 42.4721L49.6266 42.8262L49.6257 42.8271L49.2736 42.4721ZM81.8095 72.8548L82.1625 72.5008L82.1631 72.5013L81.8095 72.8548ZM88.2381 79.2842L87.8846 79.6377L87.8846 79.6377L88.2381 79.2842ZM88.2381 81.4268L87.8846 81.0733L87.8846 81.0733L88.2381 81.4268ZM87.1663 82.4988L87.5198 82.8523L87.1663 83.206L86.8127 82.8523L87.1663 82.4988ZM78.5955 73.9268L78.2419 74.2804L77.8886 73.927L78.2417 73.5735L78.5955 73.9268ZM79.6663 72.8548L79.3125 72.5015L79.3133 72.5007L79.6663 72.8548ZM83.9523 70.7135L83.5987 71.067L83.5986 71.0669L83.9523 70.7135ZM77.5236 70.7135L77.8773 71.0669L77.8771 71.0671L77.5236 70.7135ZM74.6017 73.6348L74.2482 73.2812L74.2482 73.2812L74.6017 73.6348ZM69.7319 73.6348L69.3783 73.9883L69.3782 73.9882L69.7319 73.6348ZM57.0663 60.9588L57.4198 60.6052L57.42 60.6054L57.0663 60.9588ZM57.0663 56.0895L57.42 56.4429L57.4198 56.4431L57.0663 56.0895ZM59.9865 46.7361L60.3395 46.382L60.34 46.3825L59.9865 46.7361ZM53.5595 40.3295L53.2065 40.6836L53.2059 40.683L53.5595 40.3295ZM47.1355 40.3255L47.4891 40.679L47.4876 40.6805L47.1355 40.3255ZM44.7934 42.6468L44.4398 42.2933L44.4414 42.2917L44.7934 42.6468ZM44.7934 65.8281L45.1469 65.4746L45.147 65.4747L44.7934 65.8281ZM64.8616 85.9081L64.5081 86.2617L64.508 86.2616L64.8616 85.9081ZM88.0433 85.9081L88.3969 86.2616L88.3969 86.2617L88.0433 85.9081ZM90.3813 83.5695L90.0277 83.216L90.0278 83.2159L90.3813 83.5695ZM66.6506 84.1189L46.5829 64.0403L47.2902 63.3334L67.3579 83.412L66.6506 84.1189ZM46.583 64.0404C41.4532 58.9105 41.1719 50.8545 45.7162 45.3885L46.4851 46.0278C42.2679 51.1005 42.5294 58.5725 47.2901 63.3333L46.583 64.0404ZM46.4542 45.3546L54.9953 53.8959L54.2882 54.603L45.7471 46.0617L46.4542 45.3546ZM55.0166 54.5804C52.9461 56.9262 53.0322 60.5037 55.2766 62.7479L54.5695 63.4551C51.9494 60.8352 51.849 56.6581 54.2669 53.9186L55.0166 54.5804ZM55.2768 62.7481L67.9419 75.4241L67.2344 76.1309L54.5694 63.4549L55.2768 62.7481ZM67.5881 75.7775C67.5881 76.2775 67.5881 75.7775 67.5881 75.2775H67.5881C67.5882 75.2775 67.5882 75.2775 67.5882 75.2775H67.5882H67.5882C67.5882 75.2775 67.5882 75.2775 67.5882 75.2775C67.5882 75.2775 67.5882 75.2775 67.5882 75.2775C67.5882 75.2775 67.5882 75.2775 67.5882 75.2775C67.5882 75.2775 67.5882 75.2775 67.5882 75.2775C67.5882 75.2775 67.5882 75.2775 67.5882 75.2775C67.5882 75.2775 67.5882 75.2775 67.5882 75.2775C67.5882 75.2775 67.5882 75.2775 67.5882 75.2775H67.5882C67.5882 75.2775 67.5882 75.2775 67.5882 75.2775C67.5882 75.2775 67.5882 75.2775 67.5882 75.2775H67.5882C67.5882 75.2775 67.5882 75.2775 67.5882 75.2775C67.5882 75.2775 67.5882 75.2775 67.5882 75.2775C67.5882 75.2775 67.5882 75.2775 67.5882 75.2775C67.5882 75.2775 67.5882 75.2775 67.5882 75.2775C67.5882 75.2775 67.5882 75.2775 67.5882 75.2775H67.5882C67.5882 75.2775 67.5882 75.2775 67.5882 75.2775C67.5882 75.2775 67.5882 75.2775 67.5882 75.2775H67.5882C67.5882 75.2775 67.5882 75.2775 67.5882 75.2775C67.5882 75.2775 67.5882 75.2775 67.5882 75.2775H67.5882C67.5882 75.2775 67.5882 75.2775 67.5882 75.2775C67.5882 75.2775 67.5882 75.2775 67.5882 75.2775C67.5882 75.2775 67.5882 75.2775 67.5882 75.2775H67.5882H67.5882H67.5882H67.5882H67.5882C67.5882 75.2775 67.5882 75.2775 67.5882 75.2775C67.5882 75.2775 67.5882 75.2775 67.5882 75.2775C67.5882 75.2775 67.5882 75.2775 67.5882 75.2775C67.5882 75.2775 67.5882 75.2775 67.5882 75.2775C67.5882 75.2775 67.5882 75.2775 67.5882 75.2775H67.5882C67.5882 75.2775 67.5882 75.2775 67.5882 75.2775C67.5882 75.2775 67.5882 75.2775 67.5882 75.2775H67.5882C67.5882 75.2775 67.5882 75.2775 67.5882 75.2775C67.5882 75.2775 67.5882 75.2775 67.5882 75.2775H67.5882C67.5882 75.2775 67.5882 75.2775 67.5882 75.2775H67.5882C67.5882 75.2775 67.5882 75.2775 67.5882 75.2775H67.5882C67.5882 75.2775 67.5882 75.2775 67.5882 75.2775H67.5882C67.5882 75.2775 67.5882 75.2775 67.5882 75.2775H67.5883C67.5883 75.2775 67.5883 75.2775 67.5883 75.2775C67.5883 75.2775 67.5883 75.2775 67.5883 75.2775C67.5883 75.2775 67.5883 75.2775 67.5883 75.2775C67.5883 75.2775 67.5883 75.2775 67.5883 75.2775H67.5883C67.5883 75.2775 67.5883 75.2775 67.5883 75.2775C67.5883 75.2775 67.5883 75.2775 67.5883 75.2775H67.5883C67.5883 75.2775 67.5883 75.2775 67.5883 75.2775C67.5883 75.2775 67.5883 75.2775 67.5883 75.2775C67.5883 75.2775 67.5883 75.2775 67.5883 75.2775H67.5883C67.5883 75.2775 67.5883 75.2775 67.5883 75.2775C67.5883 75.2775 67.5883 75.2775 67.5883 75.2775C67.5883 75.2775 67.5883 75.2775 67.5883 75.2775H67.5883C67.5883 75.2775 67.5883 75.2775 67.5883 75.2775C67.5883 75.2775 67.5883 75.2775 67.5883 75.2775C67.5883 75.2775 67.5883 75.2775 67.5883 75.2775C67.5883 75.2775 67.5883 75.2775 67.5883 75.2775H67.5883H67.5883H67.5883C67.5883 75.2775 67.5883 75.2775 67.5883 75.2775C67.5883 75.2775 67.5883 75.2775 67.5883 75.2775C67.5883 75.2775 67.5883 75.2775 67.5883 75.2775C67.5883 75.2775 67.5883 75.2775 67.5883 75.2775C67.5883 75.2775 67.5883 75.2775 67.5883 75.2775C67.5883 75.2775 67.5883 75.2775 67.5883 75.2775H67.5883H67.5883H67.5883H67.5883H67.5883H67.5883H67.5883C67.5883 75.2775 67.5883 75.2775 67.5883 75.2775C67.5883 75.2775 67.5883 75.2775 67.5883 75.2775C67.5883 75.2775 67.5883 75.2775 67.5883 75.2775C67.5883 75.2775 67.5883 75.2775 67.5883 75.2775C67.5883 75.2775 67.5883 75.2775 67.5883 75.2775C67.5883 75.2775 67.5883 75.2775 67.5883 75.2775H67.5883H67.5883H67.5883H67.5883H67.5883H67.5883H67.5883C67.5883 75.2775 67.5883 75.2775 67.5883 75.2775C67.5883 75.2775 67.5883 75.2775 67.5883 75.2775C67.5884 75.2775 67.5884 75.2775 67.5884 75.2775C67.5884 75.2775 67.5884 75.2775 67.5884 75.2775C67.5884 75.2775 67.5884 75.2775 67.5884 75.2775C67.5884 75.2775 67.5884 75.2775 67.5884 75.2775C67.5884 75.2775 67.5884 75.2775 67.5884 75.2775H67.5884H67.5884H67.5884C67.5884 75.2775 67.5884 75.2775 67.5884 75.2775C67.5884 75.2775 67.5884 75.2775 67.5884 75.2775C67.5884 75.2775 67.5884 75.2775 67.5884 75.2775H67.5884H67.5884H67.5884C67.5884 75.2775 67.5884 75.2775 67.5884 75.2775C67.5884 75.2775 67.5884 75.2775 67.5884 75.2775C67.5884 75.2775 67.5884 75.2775 67.5884 75.2775H67.5884C67.5884 75.2775 67.5884 75.2775 67.5884 75.2775C67.5884 75.2775 67.5884 75.2775 67.5884 75.2775C67.5884 75.2775 67.5884 75.2775 67.5884 75.2775H67.5884H67.5884C67.5884 75.2775 67.5884 75.2775 67.5884 75.2775C67.5884 75.2775 67.5884 75.2775 67.5884 75.2775H67.5884C67.5884 75.2775 67.5884 75.2775 67.5884 75.2775C67.5884 75.2775 67.5884 75.2775 67.5884 75.2775H67.5884H67.5884C67.5884 75.2775 67.5884 75.2775 67.5884 75.2775H67.5884H67.5884C67.5884 75.2775 67.5884 75.2775 67.5884 75.2775H67.5884C67.5884 75.2775 67.5884 75.2775 67.5884 75.2775C67.5884 75.2775 67.5884 75.2775 67.5884 75.2775H67.5884C67.5884 75.2775 67.5884 75.2775 67.5884 75.2775C67.5884 75.2775 67.5884 75.2775 67.5884 75.2775H67.5884C67.5884 75.2775 67.5884 75.2775 67.5884 75.2775H67.5885C67.5885 75.2775 67.5885 75.2775 67.5885 75.2775H67.5885C67.5885 75.2775 67.5885 75.2775 67.5885 75.2775C67.5885 75.2775 67.5885 75.2775 67.5885 75.2775H67.5885C67.5885 75.2775 67.5885 75.2775 67.5885 75.2775H67.5885C67.5885 75.2775 67.5885 75.2775 67.5885 75.2775H67.5885C67.5885 75.2775 67.5885 75.2775 67.5885 75.2775H67.5885C67.5885 75.2775 67.5885 75.2775 67.5885 75.2775H67.5885C67.5885 75.2775 67.5885 75.2775 67.5885 75.2775C67.5885 75.2775 67.5885 75.2775 67.5885 75.2775H67.5885C67.5885 75.2775 67.5885 75.2775 67.5885 75.2775H67.5885C67.5885 75.2775 67.5885 75.2775 67.5885 75.2775H67.5885C67.5885 75.2775 67.5885 75.2775 67.5885 75.2775C67.5885 75.2775 67.5885 75.2775 67.5885 75.2775H67.5885C67.5885 75.2775 67.5885 75.2775 67.5885 75.2775C67.5885 75.2775 67.5885 75.2775 67.5885 75.2775H67.5885C67.5885 75.2775 67.5885 75.2775 67.5885 75.2775C67.5885 75.2775 67.5885 75.2775 67.5885 75.2775H67.5885C67.5885 75.2775 67.5885 75.2775 67.5885 75.2775C67.5885 75.2775 67.5885 75.2775 67.5885 75.2775H67.5885C67.5885 75.2775 67.5885 75.2775 67.5886 75.2775C67.5886 75.2775 67.5886 75.2775 67.5886 75.2775C67.5886 75.2775 67.5886 75.2775 67.5886 75.2775H67.5886C67.5886 75.2775 67.5886 75.2775 67.5886 75.2775C67.5886 75.2775 67.5886 75.2775 67.5886 75.2775C67.5886 75.2775 67.5886 75.2775 67.5886 75.2775H67.5886C67.5886 75.2775 67.5886 75.2775 67.5886 75.2775C67.5886 75.2775 67.5886 75.2775 67.5886 75.2775C67.5886 75.2775 67.5886 75.2775 67.5886 75.2775C67.5886 75.2775 67.5886 75.2775 67.5886 75.2775H67.5886C67.5886 75.2775 67.5886 75.2775 67.5886 75.2775C67.5886 75.2775 67.5886 75.2775 67.5886 75.2775C67.5886 75.2775 67.5886 75.2775 67.5886 75.2775C67.5886 75.2775 67.5886 75.2775 67.5886 75.2775C67.5886 75.2775 67.5886 75.2775 67.5886 75.2775C67.5886 75.2775 67.5886 75.2775 67.5886 75.2775H67.5886C67.5886 75.2775 67.5886 75.2775 67.5886 75.2775C67.5886 75.2775 67.5886 75.2775 67.5886 75.2775C67.5886 75.2775 67.5886 75.2775 67.5886 75.2775C67.5886 75.2775 67.5886 75.2775 67.5886 75.2775C67.5886 75.2775 67.5886 75.2775 67.5886 75.2775C67.5886 75.2775 67.5886 75.2775 67.5886 75.2775C67.5886 75.2775 67.5886 75.2775 67.5886 75.2775C67.5886 75.2775 67.5886 75.2775 67.5886 75.2775C67.5886 75.2775 67.5886 75.2775 67.5886 75.2775C67.5887 75.2775 67.5887 75.2775 67.5887 75.2775C67.5887 75.2775 67.5887 75.2775 67.5887 75.2775C67.5887 75.2775 67.5887 75.2775 67.5887 75.2775C67.5887 75.2775 67.5887 75.2775 67.5887 75.2775C67.5887 75.2775 67.5887 75.2775 67.5887 75.2775C67.5887 75.2775 67.5887 75.2775 67.5887 75.2775C67.5887 75.2775 67.5887 75.2775 67.5887 75.2775C67.5887 75.2775 67.5887 75.2775 67.5887 75.2775C67.5887 75.2775 67.5887 75.2775 67.5887 75.2775C67.5887 75.2775 67.5887 75.2775 67.5887 75.2775C67.5887 75.2775 67.5887 75.2775 67.5887 75.2775C67.5887 75.2775 67.5887 75.2775 67.5887 75.2775C67.5887 75.2775 67.5887 75.2775 67.5887 75.2775C67.5887 75.2775 67.5887 75.2775 67.5887 75.2775C67.5887 75.2775 67.5887 75.2775 67.5887 75.2775C67.5887 75.2775 67.5887 75.2775 67.5887 75.2775C67.5887 75.2775 67.5887 75.2775 67.5887 75.2775C67.5887 75.2775 67.5887 75.2775 67.5887 75.2775C67.5887 75.2775 67.5887 75.2775 67.5887 75.2775C67.5887 75.2775 67.5887 75.2775 67.5887 75.2775C67.5887 75.2775 67.5887 75.2775 67.5887 75.2775C67.5887 75.2775 67.5887 75.2775 67.5887 75.2775C67.5887 75.2775 67.5887 75.2775 67.5887 75.2775C67.5887 75.2775 67.5887 75.2775 67.5887 75.2775C67.5887 75.2775 67.5887 75.2775 67.5888 75.2775C67.5888 75.2775 67.5888 75.2775 67.5888 75.2775C67.5888 75.2775 67.5888 75.2775 67.5888 75.2775C67.5888 75.2775 67.5888 75.2775 67.5888 75.2775C67.5888 75.2775 67.5888 75.2775 67.5888 75.2775C67.5888 75.2775 67.5888 75.2775 67.5888 75.2775C67.5888 75.2775 67.5888 75.2775 67.5888 75.2775C67.5888 75.2775 67.5888 75.2775 67.5888 75.2775C67.5888 75.2775 67.5888 75.2775 67.5888 75.2775C67.5888 75.2775 67.5888 75.2775 67.5888 75.2775C67.5888 75.2775 67.5888 75.2775 67.5888 75.2775C67.5888 75.2775 67.5888 75.2775 67.5888 75.2775C67.5888 75.2775 67.5888 75.2775 67.5888 75.2775C67.5888 75.2775 67.5888 75.2775 67.5888 75.2775C67.5888 75.2775 67.5888 75.2775 67.5888 75.2775C67.5888 75.2775 67.5888 75.2775 67.5888 75.2775C67.5888 75.2775 67.5888 75.2775 67.5888 75.2775C67.5888 75.2775 67.5888 75.2775 67.5888 75.2775C67.5888 75.2775 67.5888 75.2775 67.5888 75.2775C67.5888 75.2775 67.5888 75.2775 67.5888 75.2775C67.5888 75.2775 67.5888 75.2775 67.5888 75.2775C67.5888 75.2775 67.5888 75.2775 67.5888 75.2775C67.5888 75.2775 67.5888 75.2775 67.5889 75.2775C67.5889 75.2775 67.5889 75.2775 67.5889 75.2775C67.5889 75.2775 67.5889 75.2775 67.5889 75.2775C67.5889 75.2775 67.5889 75.2775 67.5889 75.2775C67.5889 75.2775 67.5889 75.2775 67.5889 75.2775C67.5889 75.2775 67.5889 75.2775 67.5889 75.2775C67.5889 75.2775 67.5889 75.2775 67.5889 75.2775C67.5889 75.2775 67.5889 75.2775 67.5889 75.2775C67.5889 75.2775 67.5889 75.2775 67.5889 75.2775C67.5889 75.2775 67.5889 75.2775 67.5889 75.2775C67.5889 75.2775 67.5889 75.2775 67.5889 75.2775C67.5889 75.2775 67.5889 75.2775 67.5889 75.2775C67.5889 75.2775 67.5889 75.2775 67.5889 75.2775C67.5889 75.2775 67.5889 75.2775 67.5889 75.2775C67.5889 75.2775 67.5889 75.2775 67.5889 75.2775C67.5889 75.2775 67.5889 75.2775 67.5889 75.2775C67.5889 75.2775 67.5889 75.2775 67.5889 75.2775C67.5889 75.2775 67.5889 75.2775 67.5889 75.2775C67.5889 75.2775 67.5889 75.2775 67.5889 75.2775C67.5889 75.2775 67.5889 75.2775 67.5889 75.2775C67.5889 75.2775 67.5889 75.2775 67.5889 75.2775C67.589 75.2775 67.589 75.2775 67.589 75.2775C67.589 75.2775 67.589 75.2775 67.589 75.2775C67.589 75.2775 67.589 75.2775 67.589 75.2775C67.589 75.2775 67.589 75.2775 67.589 75.2775C67.589 75.2775 67.589 75.2775 67.589 75.2775C67.589 75.2775 67.589 75.2775 67.589 75.2775C67.589 75.2775 67.589 75.2775 67.589 75.2775C67.589 75.2775 67.589 75.2775 67.589 75.2775C67.589 75.2775 67.589 75.2775 67.589 75.2775C67.589 75.2775 67.589 75.2775 67.589 75.2775C67.589 75.2775 67.589 75.2775 67.589 75.2775C67.589 75.2775 67.589 75.2775 67.589 75.2775C67.589 75.2775 67.589 75.2775 67.589 75.2775C67.589 75.2775 67.589 75.2775 67.589 75.2775C67.589 75.2775 67.589 75.2775 67.589 75.2775C67.589 75.2775 67.589 75.2775 67.589 75.2775C67.589 75.2775 67.589 75.2775 67.589 75.2775C67.589 75.2775 67.589 75.2775 67.589 75.2775C67.589 75.2775 67.5891 75.2775 67.5891 75.2775C67.5891 75.2775 67.5891 75.2775 67.5891 75.2775C67.5891 75.2775 67.5891 75.2775 67.5891 75.2775C67.5891 75.2775 67.5891 75.2775 67.5891 75.2775C67.5891 75.2775 67.5891 75.2775 67.5891 75.2775C67.5891 75.2775 67.5891 75.2775 67.5891 75.2775C67.5891 75.2775 67.5891 75.2775 67.5891 75.2775C67.5891 75.2775 67.5891 75.2775 67.5891 75.2775C67.5891 75.2775 67.5891 75.2775 67.5891 75.2775C67.5891 75.2775 67.5891 75.2775 67.5891 75.2775C67.5891 75.2775 67.5891 75.2775 67.5891 75.2775C67.5891 75.2775 67.5891 75.2775 67.5891 75.2775C67.5891 75.2775 67.5891 75.2775 67.5891 75.2775C67.5891 75.2775 67.5891 75.2775 67.5891 75.2775C67.5891 75.2775 67.5891 75.2775 67.5891 75.2775C67.5891 75.2775 67.5891 75.2775 67.5891 75.2775C67.5891 75.2775 67.5891 75.2775 67.5891 75.2775C67.5891 75.2775 67.5891 75.2775 67.5891 75.2775C67.5892 75.2775 67.5892 75.2775 67.5892 75.2775C67.5892 75.2775 67.5892 75.2775 67.5892 75.2775C67.5892 75.2775 67.5892 75.2775 67.5892 75.2775C67.5892 75.2775 67.5892 75.2775 67.5892 75.2775C67.5892 75.2775 67.5892 75.2775 67.5892 75.2775C67.5892 75.2775 67.5892 75.2775 67.5892 75.2775C67.5892 75.2775 67.5892 75.2775 67.5892 75.2775C67.5892 75.2775 67.5892 75.2775 67.5892 75.2775C67.5892 75.2775 67.5892 75.2775 67.5892 75.2775C67.5892 75.2775 67.5892 75.2775 67.5892 75.2775V76.2775C67.5892 76.2775 67.5892 76.2775 67.5892 76.2775C67.5892 76.2775 67.5892 76.2775 67.5892 76.2775C67.5892 76.2775 67.5892 76.2775 67.5892 76.2775C67.5892 76.2775 67.5892 76.2775 67.5892 76.2775C67.5892 76.2775 67.5892 76.2775 67.5892 76.2775C67.5892 76.2775 67.5892 76.2775 67.5892 76.2775C67.5892 76.2775 67.5892 76.2775 67.5892 76.2775C67.5892 76.2775 67.5892 76.2775 67.5892 76.2775C67.5892 76.2775 67.5892 76.2775 67.5892 76.2775C67.5892 76.2775 67.5892 76.2775 67.5891 76.2775C67.5891 76.2775 67.5891 76.2775 67.5891 76.2775C67.5891 76.2775 67.5891 76.2775 67.5891 76.2775C67.5891 76.2775 67.5891 76.2775 67.5891 76.2775C67.5891 76.2775 67.5891 76.2775 67.5891 76.2775C67.5891 76.2775 67.5891 76.2775 67.5891 76.2775C67.5891 76.2775 67.5891 76.2775 67.5891 76.2775C67.5891 76.2775 67.5891 76.2775 67.5891 76.2775C67.5891 76.2775 67.5891 76.2775 67.5891 76.2775C67.5891 76.2775 67.5891 76.2775 67.5891 76.2775C67.5891 76.2775 67.5891 76.2775 67.5891 76.2775C67.5891 76.2775 67.5891 76.2775 67.5891 76.2775C67.5891 76.2775 67.5891 76.2775 67.5891 76.2775C67.5891 76.2775 67.5891 76.2775 67.5891 76.2775C67.5891 76.2775 67.5891 76.2775 67.5891 76.2775C67.5891 76.2775 67.5891 76.2775 67.5891 76.2775C67.5891 76.2775 67.5891 76.2775 67.5891 76.2775C67.5891 76.2775 67.5891 76.2775 67.5891 76.2775C67.5891 76.2775 67.589 76.2775 67.589 76.2775C67.589 76.2775 67.589 76.2775 67.589 76.2775C67.589 76.2775 67.589 76.2775 67.589 76.2775C67.589 76.2775 67.589 76.2775 67.589 76.2775C67.589 76.2775 67.589 76.2775 67.589 76.2775C67.589 76.2775 67.589 76.2775 67.589 76.2775C67.589 76.2775 67.589 76.2775 67.589 76.2775C67.589 76.2775 67.589 76.2775 67.589 76.2775C67.589 76.2775 67.589 76.2775 67.589 76.2775C67.589 76.2775 67.589 76.2775 67.589 76.2775C67.589 76.2775 67.589 76.2775 67.589 76.2775C67.589 76.2775 67.589 76.2775 67.589 76.2775C67.589 76.2775 67.589 76.2775 67.589 76.2775C67.589 76.2775 67.589 76.2775 67.589 76.2775C67.589 76.2775 67.589 76.2775 67.589 76.2775C67.589 76.2775 67.589 76.2775 67.589 76.2775C67.589 76.2775 67.589 76.2775 67.589 76.2775C67.589 76.2775 67.589 76.2775 67.589 76.2775C67.589 76.2775 67.589 76.2775 67.5889 76.2775C67.5889 76.2775 67.5889 76.2775 67.5889 76.2775C67.5889 76.2775 67.5889 76.2775 67.5889 76.2775C67.5889 76.2775 67.5889 76.2775 67.5889 76.2775C67.5889 76.2775 67.5889 76.2775 67.5889 76.2775C67.5889 76.2775 67.5889 76.2775 67.5889 76.2775C67.5889 76.2775 67.5889 76.2775 67.5889 76.2775C67.5889 76.2775 67.5889 76.2775 67.5889 76.2775C67.5889 76.2775 67.5889 76.2775 67.5889 76.2775C67.5889 76.2775 67.5889 76.2775 67.5889 76.2775C67.5889 76.2775 67.5889 76.2775 67.5889 76.2775C67.5889 76.2775 67.5889 76.2775 67.5889 76.2775C67.5889 76.2775 67.5889 76.2775 67.5889 76.2775C67.5889 76.2775 67.5889 76.2775 67.5889 76.2775C67.5889 76.2775 67.5889 76.2775 67.5889 76.2775C67.5889 76.2775 67.5889 76.2775 67.5889 76.2775C67.5889 76.2775 67.5889 76.2775 67.5889 76.2775C67.5889 76.2775 67.5889 76.2775 67.5889 76.2775C67.5889 76.2775 67.5889 76.2775 67.5889 76.2775C67.5889 76.2775 67.5889 76.2775 67.5889 76.2775C67.5889 76.2775 67.5889 76.2775 67.5889 76.2775C67.5888 76.2775 67.5888 76.2775 67.5888 76.2775C67.5888 76.2775 67.5888 76.2775 67.5888 76.2775C67.5888 76.2775 67.5888 76.2775 67.5888 76.2775C67.5888 76.2775 67.5888 76.2775 67.5888 76.2775C67.5888 76.2775 67.5888 76.2775 67.5888 76.2775C67.5888 76.2775 67.5888 76.2775 67.5888 76.2775C67.5888 76.2775 67.5888 76.2775 67.5888 76.2775C67.5888 76.2775 67.5888 76.2775 67.5888 76.2775C67.5888 76.2775 67.5888 76.2775 67.5888 76.2775C67.5888 76.2775 67.5888 76.2775 67.5888 76.2775C67.5888 76.2775 67.5888 76.2775 67.5888 76.2775C67.5888 76.2775 67.5888 76.2775 67.5888 76.2775C67.5888 76.2775 67.5888 76.2775 67.5888 76.2775C67.5888 76.2775 67.5888 76.2775 67.5888 76.2775C67.5888 76.2775 67.5888 76.2775 67.5888 76.2775C67.5888 76.2775 67.5888 76.2775 67.5888 76.2775C67.5888 76.2775 67.5888 76.2775 67.5888 76.2775C67.5888 76.2775 67.5888 76.2775 67.5888 76.2775C67.5888 76.2775 67.5888 76.2775 67.5888 76.2775C67.5888 76.2775 67.5888 76.2775 67.5888 76.2775C67.5888 76.2775 67.5888 76.2775 67.5888 76.2775C67.5888 76.2775 67.5888 76.2775 67.5888 76.2775C67.5887 76.2775 67.5887 76.2775 67.5887 76.2775C67.5887 76.2775 67.5887 76.2775 67.5887 76.2775C67.5887 76.2775 67.5887 76.2775 67.5887 76.2775C67.5887 76.2775 67.5887 76.2775 67.5887 76.2775C67.5887 76.2775 67.5887 76.2775 67.5887 76.2775C67.5887 76.2775 67.5887 76.2775 67.5887 76.2775C67.5887 76.2775 67.5887 76.2775 67.5887 76.2775C67.5887 76.2775 67.5887 76.2775 67.5887 76.2775C67.5887 76.2775 67.5887 76.2775 67.5887 76.2775C67.5887 76.2775 67.5887 76.2775 67.5887 76.2775C67.5887 76.2775 67.5887 76.2775 67.5887 76.2775C67.5887 76.2775 67.5887 76.2775 67.5887 76.2775C67.5887 76.2775 67.5887 76.2775 67.5887 76.2775C67.5887 76.2775 67.5887 76.2775 67.5887 76.2775C67.5887 76.2775 67.5887 76.2775 67.5887 76.2775C67.5887 76.2775 67.5887 76.2775 67.5887 76.2775C67.5887 76.2775 67.5887 76.2775 67.5887 76.2775C67.5887 76.2775 67.5887 76.2775 67.5887 76.2775C67.5887 76.2775 67.5887 76.2775 67.5887 76.2775C67.5887 76.2775 67.5887 76.2775 67.5887 76.2775C67.5887 76.2775 67.5887 76.2775 67.5887 76.2775C67.5887 76.2775 67.5887 76.2775 67.5887 76.2775C67.5887 76.2775 67.5887 76.2775 67.5887 76.2775C67.5887 76.2775 67.5887 76.2775 67.5887 76.2775C67.5887 76.2775 67.5887 76.2775 67.5886 76.2775C67.5886 76.2775 67.5886 76.2775 67.5886 76.2775C67.5886 76.2775 67.5886 76.2775 67.5886 76.2775C67.5886 76.2775 67.5886 76.2775 67.5886 76.2775C67.5886 76.2775 67.5886 76.2775 67.5886 76.2775C67.5886 76.2775 67.5886 76.2775 67.5886 76.2775C67.5886 76.2775 67.5886 76.2775 67.5886 76.2775C67.5886 76.2775 67.5886 76.2775 67.5886 76.2775C67.5886 76.2775 67.5886 76.2775 67.5886 76.2775C67.5886 76.2775 67.5886 76.2775 67.5886 76.2775H67.5886C67.5886 76.2775 67.5886 76.2775 67.5886 76.2775C67.5886 76.2775 67.5886 76.2775 67.5886 76.2775C67.5886 76.2775 67.5886 76.2775 67.5886 76.2775C67.5886 76.2775 67.5886 76.2775 67.5886 76.2775C67.5886 76.2775 67.5886 76.2775 67.5886 76.2775C67.5886 76.2775 67.5886 76.2775 67.5886 76.2775H67.5886C67.5886 76.2775 67.5886 76.2775 67.5886 76.2775C67.5886 76.2775 67.5886 76.2775 67.5886 76.2775C67.5886 76.2775 67.5886 76.2775 67.5886 76.2775C67.5886 76.2775 67.5886 76.2775 67.5886 76.2775H67.5886C67.5886 76.2775 67.5886 76.2775 67.5886 76.2775C67.5886 76.2775 67.5886 76.2775 67.5886 76.2775C67.5886 76.2775 67.5886 76.2775 67.5886 76.2775H67.5886C67.5886 76.2775 67.5886 76.2775 67.5886 76.2775C67.5886 76.2775 67.5886 76.2775 67.5886 76.2775C67.5885 76.2775 67.5885 76.2775 67.5885 76.2775H67.5885C67.5885 76.2775 67.5885 76.2775 67.5885 76.2775C67.5885 76.2775 67.5885 76.2775 67.5885 76.2775H67.5885C67.5885 76.2775 67.5885 76.2775 67.5885 76.2775C67.5885 76.2775 67.5885 76.2775 67.5885 76.2775H67.5885C67.5885 76.2775 67.5885 76.2775 67.5885 76.2775C67.5885 76.2775 67.5885 76.2775 67.5885 76.2775H67.5885C67.5885 76.2775 67.5885 76.2775 67.5885 76.2775C67.5885 76.2775 67.5885 76.2775 67.5885 76.2775H67.5885C67.5885 76.2775 67.5885 76.2775 67.5885 76.2775H67.5885C67.5885 76.2775 67.5885 76.2775 67.5885 76.2775H67.5885C67.5885 76.2775 67.5885 76.2775 67.5885 76.2775C67.5885 76.2775 67.5885 76.2775 67.5885 76.2775H67.5885C67.5885 76.2775 67.5885 76.2775 67.5885 76.2775H67.5885C67.5885 76.2775 67.5885 76.2775 67.5885 76.2775H67.5885C67.5885 76.2775 67.5885 76.2775 67.5885 76.2775H67.5885C67.5885 76.2775 67.5885 76.2775 67.5885 76.2775H67.5885C67.5885 76.2775 67.5885 76.2775 67.5885 76.2775C67.5885 76.2775 67.5885 76.2775 67.5885 76.2775H67.5885C67.5885 76.2775 67.5885 76.2775 67.5885 76.2775H67.5884C67.5884 76.2775 67.5884 76.2775 67.5884 76.2775H67.5884C67.5884 76.2775 67.5884 76.2775 67.5884 76.2775C67.5884 76.2775 67.5884 76.2775 67.5884 76.2775H67.5884C67.5884 76.2775 67.5884 76.2775 67.5884 76.2775C67.5884 76.2775 67.5884 76.2775 67.5884 76.2775H67.5884C67.5884 76.2775 67.5884 76.2775 67.5884 76.2775H67.5884H67.5884C67.5884 76.2775 67.5884 76.2775 67.5884 76.2775H67.5884H67.5884C67.5884 76.2775 67.5884 76.2775 67.5884 76.2775C67.5884 76.2775 67.5884 76.2775 67.5884 76.2775H67.5884C67.5884 76.2775 67.5884 76.2775 67.5884 76.2775C67.5884 76.2775 67.5884 76.2775 67.5884 76.2775H67.5884H67.5884C67.5884 76.2775 67.5884 76.2775 67.5884 76.2775C67.5884 76.2775 67.5884 76.2775 67.5884 76.2775C67.5884 76.2775 67.5884 76.2775 67.5884 76.2775H67.5884C67.5884 76.2775 67.5884 76.2775 67.5884 76.2775C67.5884 76.2775 67.5884 76.2775 67.5884 76.2775C67.5884 76.2775 67.5884 76.2775 67.5884 76.2775H67.5884H67.5884H67.5884C67.5884 76.2775 67.5884 76.2775 67.5884 76.2775C67.5884 76.2775 67.5884 76.2775 67.5884 76.2775C67.5884 76.2775 67.5884 76.2775 67.5884 76.2775H67.5884H67.5884H67.5884C67.5884 76.2775 67.5884 76.2775 67.5884 76.2775C67.5884 76.2775 67.5884 76.2775 67.5884 76.2775C67.5884 76.2775 67.5884 76.2775 67.5884 76.2775C67.5884 76.2775 67.5884 76.2775 67.5884 76.2775C67.5884 76.2775 67.5884 76.2775 67.5883 76.2775C67.5883 76.2775 67.5883 76.2775 67.5883 76.2775C67.5883 76.2775 67.5883 76.2775 67.5883 76.2775H67.5883H67.5883H67.5883H67.5883H67.5883H67.5883H67.5883C67.5883 76.2775 67.5883 76.2775 67.5883 76.2775C67.5883 76.2775 67.5883 76.2775 67.5883 76.2775C67.5883 76.2775 67.5883 76.2775 67.5883 76.2775C67.5883 76.2775 67.5883 76.2775 67.5883 76.2775C67.5883 76.2775 67.5883 76.2775 67.5883 76.2775C67.5883 76.2775 67.5883 76.2775 67.5883 76.2775H67.5883H67.5883H67.5883H67.5883H67.5883H67.5883H67.5883C67.5883 76.2775 67.5883 76.2775 67.5883 76.2775C67.5883 76.2775 67.5883 76.2775 67.5883 76.2775C67.5883 76.2775 67.5883 76.2775 67.5883 76.2775C67.5883 76.2775 67.5883 76.2775 67.5883 76.2775C67.5883 76.2775 67.5883 76.2775 67.5883 76.2775C67.5883 76.2775 67.5883 76.2775 67.5883 76.2775H67.5883H67.5883H67.5883C67.5883 76.2775 67.5883 76.2775 67.5883 76.2775C67.5883 76.2775 67.5883 76.2775 67.5883 76.2775C67.5883 76.2775 67.5883 76.2775 67.5883 76.2775C67.5883 76.2775 67.5883 76.2775 67.5883 76.2775H67.5883C67.5883 76.2775 67.5883 76.2775 67.5883 76.2775C67.5883 76.2775 67.5883 76.2775 67.5883 76.2775C67.5883 76.2775 67.5883 76.2775 67.5883 76.2775H67.5883C67.5883 76.2775 67.5883 76.2775 67.5883 76.2775C67.5883 76.2775 67.5883 76.2775 67.5883 76.2775C67.5883 76.2775 67.5883 76.2775 67.5883 76.2775H67.5883C67.5883 76.2775 67.5883 76.2775 67.5883 76.2775C67.5883 76.2775 67.5883 76.2775 67.5883 76.2775H67.5883C67.5883 76.2775 67.5883 76.2775 67.5883 76.2775C67.5883 76.2775 67.5883 76.2775 67.5883 76.2775C67.5883 76.2775 67.5883 76.2775 67.5883 76.2775C67.5883 76.2775 67.5883 76.2775 67.5883 76.2775H67.5882C67.5882 76.2775 67.5882 76.2775 67.5882 76.2775H67.5882C67.5882 76.2775 67.5882 76.2775 67.5882 76.2775H67.5882C67.5882 76.2775 67.5882 76.2775 67.5882 76.2775H67.5882C67.5882 76.2775 67.5882 76.2775 67.5882 76.2775H67.5882C67.5882 76.2775 67.5882 76.2775 67.5882 76.2775C67.5882 76.2775 67.5882 76.2775 67.5882 76.2775H67.5882C67.5882 76.2775 67.5882 76.2775 67.5882 76.2775C67.5882 76.2775 67.5882 76.2775 67.5882 76.2775H67.5882C67.5882 76.2775 67.5882 76.2775 67.5882 76.2775C67.5882 76.2775 67.5882 76.2775 67.5882 76.2775C67.5882 76.2775 67.5882 76.2775 67.5882 76.2775C67.5882 76.2775 67.5882 76.2775 67.5882 76.2775C67.5882 76.2775 67.5882 76.2775 67.5882 76.2775H67.5882H67.5882H67.5882H67.5882H67.5882C67.5882 76.2775 67.5882 76.2775 67.5882 76.2775C67.5882 76.2775 67.5882 76.2775 67.5882 76.2775C67.5882 76.2775 67.5882 76.2775 67.5882 76.2775H67.5882C67.5882 76.2775 67.5882 76.2775 67.5882 76.2775C67.5882 76.2775 67.5882 76.2775 67.5882 76.2775H67.5882C67.5882 76.2775 67.5882 76.2775 67.5882 76.2775C67.5882 76.2775 67.5882 76.2775 67.5882 76.2775H67.5882C67.5882 76.2775 67.5882 76.2775 67.5882 76.2775C67.5882 76.2775 67.5882 76.2775 67.5882 76.2775C67.5882 76.2775 67.5882 76.2775 67.5882 76.2775C67.5882 76.2775 67.5882 76.2775 67.5882 76.2775C67.5882 76.2775 67.5882 76.2775 67.5882 76.2775H67.5882C67.5882 76.2775 67.5882 76.2775 67.5882 76.2775C67.5882 76.2775 67.5882 76.2775 67.5882 76.2775H67.5882C67.5882 76.2775 67.5882 76.2775 67.5882 76.2775C67.5882 76.2775 67.5882 76.2775 67.5882 76.2775C67.5882 76.2775 67.5882 76.2775 67.5882 76.2775C67.5882 76.2775 67.5882 76.2775 67.5882 76.2775C67.5882 76.2775 67.5882 76.2775 67.5882 76.2775C67.5882 76.2775 67.5882 76.2775 67.5882 76.2775C67.5882 76.2775 67.5882 76.2775 67.5882 76.2775H67.5882H67.5882C67.5882 76.2775 67.5882 76.2775 67.5881 76.2775H67.5881C67.5881 75.7775 67.5881 75.2775 67.5881 75.7775ZM67.9429 75.424C70.1845 77.667 73.7612 77.7581 76.111 75.6852L76.7725 76.4351C74.0287 78.8556 69.8524 78.7493 67.2356 76.1309L67.9429 75.424ZM76.7953 75.7066L85.337 84.2479L84.6299 84.955L76.0882 76.4137L76.7953 75.7066ZM85.3033 84.9858C79.8544 89.5207 71.8154 89.2832 66.6507 84.119L67.3578 83.4119C72.1515 88.2051 79.6062 88.4263 84.6636 84.2172L85.3033 84.9858ZM51.7713 42.1207L58.1984 48.526L57.4925 49.2343L51.0654 42.829L51.7713 42.1207ZM58.1994 48.527C58.9861 49.3153 58.9867 50.5903 58.199 51.3778L57.492 50.6706C57.8886 50.2741 57.8891 49.6317 57.4916 49.2333L58.1994 48.527ZM58.199 51.3777L57.1272 52.4497L56.42 51.7426L57.4919 50.6706L58.199 51.3777ZM56.42 52.4497L47.8544 43.883L48.5615 43.1759L57.1272 51.7426L56.42 52.4497ZM47.8558 43.1745L48.9214 42.1172L49.6257 42.8271L48.5601 43.8844L47.8558 43.1745ZM48.9206 42.118C49.7072 41.3338 50.9842 41.3345 51.7717 42.1211L51.065 42.8286C50.6671 42.4312 50.0222 42.4318 49.6266 42.8262L48.9206 42.118ZM82.1631 72.5013L88.5917 78.9306L87.8846 79.6377L81.4559 73.2084L82.1631 72.5013ZM88.5917 78.9306C89.3776 79.7165 89.3776 80.9945 88.5917 81.7804L87.8846 81.0733C88.28 80.6779 88.28 80.0331 87.8846 79.6377L88.5917 78.9306ZM88.5917 81.7804L87.5198 82.8523L86.8127 82.1453L87.8846 81.0733L88.5917 81.7804ZM86.8127 82.8523L78.2419 74.2804L78.9491 73.5733L87.5199 82.1453L86.8127 82.8523ZM78.2417 73.5735L79.3125 72.5015L80.02 73.2082L78.9492 74.2802L78.2417 73.5735ZM79.3133 72.5007C80.0996 71.7169 81.3763 71.7168 82.1625 72.5008L81.4564 73.2089C81.0605 72.8142 80.4154 72.8141 80.0193 73.2089L79.3133 72.5007ZM90.0267 77.495L83.5987 71.067L84.3058 70.3599L90.7338 76.7879L90.0267 77.495ZM83.5986 71.0669C82.0215 69.489 79.4544 69.489 77.8773 71.0669L77.17 70.36C79.1376 68.3913 82.3382 68.3913 84.3059 70.36L83.5986 71.0669ZM77.8771 71.0671L74.9553 73.9884L74.2482 73.2812L77.1701 70.3599L77.8771 71.0671ZM74.9553 73.9884C73.4173 75.5262 70.9159 75.5263 69.3783 73.9883L70.0855 73.2813C71.2324 74.4286 73.1006 74.4287 74.2482 73.2812L74.9553 73.9884ZM69.3782 73.9882L56.7126 61.3122L57.42 60.6054L70.0856 73.2814L69.3782 73.9882ZM56.7128 61.3125C55.1716 59.7718 55.1716 57.2765 56.7128 55.7359L57.4198 56.4431C56.2693 57.5932 56.2693 59.4552 57.4198 60.6052L56.7128 61.3125ZM56.7126 55.7361C57.1829 55.2653 58.5352 53.9132 59.6351 52.8133L60.3422 53.5204C59.2422 54.6204 57.8902 55.9723 57.42 56.4429L56.7126 55.7361ZM59.6351 52.8133C61.2055 51.2428 61.2272 48.6835 59.633 47.0897L60.34 46.3825C62.3282 48.3701 62.2998 51.5628 60.3422 53.5204L59.6351 52.8133ZM59.6336 47.0903L53.2065 40.6836L53.9125 39.9754L60.3395 46.382L59.6336 47.0903ZM53.2059 40.683C51.629 39.106 49.0613 39.1066 47.4891 40.679L46.782 39.972C48.7452 38.0084 51.9462 38.0089 53.913 39.9759L53.2059 40.683ZM47.4876 40.6805C46.1647 41.9925 45.7382 42.4143 45.1453 43.0019L44.4414 42.2917C45.035 41.7034 45.4605 41.2825 46.7835 39.9705L47.4876 40.6805ZM45.1469 43.0004C38.951 49.1971 38.9511 59.2792 45.1469 65.4746L44.4398 66.1817C37.8534 59.5957 37.8534 48.8805 44.4398 42.2933L45.1469 43.0004ZM45.147 65.4747L65.2153 85.5547L64.508 86.2616L44.4397 66.1816L45.147 65.4747ZM65.2151 85.5546C71.4262 91.7647 81.4783 91.766 87.6898 85.5546L88.3969 86.2617C81.7948 92.8637 71.1096 92.8622 64.5081 86.2617L65.2151 85.5546ZM87.6897 85.5546L90.0277 83.216L90.7349 83.923L88.3969 86.2616L87.6897 85.5546ZM90.0278 83.2159C91.6044 81.6392 91.6044 79.0719 90.0268 77.4951L90.7337 76.7878C92.702 78.7551 92.702 81.9557 90.7349 83.923L90.0278 83.2159Z" fill="black" mask="url(#path-3-outside-1_16_3908)"/>
<defs>
<radialGradient id="paint0_radial_16_3908" cx="0" cy="0" r="1" gradientUnits="userSpaceOnUse" gradientTransform="translate(65.5 65) rotate(90) scale(49.5146 50)">
<stop offset="0.697917"/>
<stop offset="0.770833" stop-color="white" stop-opacity="0.78"/>
<stop offset="0.9375" stop-color="white" stop-opacity="0.99"/>
</radialGradient>
</defs>
</svg>
